<svg xmlns:xlink="http://www.w3.org/1999/xlink" xmlns="http://www.w3.org/2000/svg" version="1.1" width="799" height="597"><defs><clipPath id="highcharts-10"><rect rx="0" ry="0" fill="none" x="0" y="0" width="725" height="492" stroke-width="0.000001"></rect></clipPath></defs><rect rx="5" ry="5" fill="#FFFFFF" x="0" y="0" width="799" height="597" stroke-width="0.000001" stroke="#4572A7"></rect><g class="highcharts-grid" ></g><g class="highcharts-grid" ><path d="M 64 470.5 L 789 470.5" fill="none" stroke="#C0C0C0" stroke-width="1" ></path><path d="M 64 408.5 L 789 408.5" fill="none" stroke="#C0C0C0" stroke-width="1" ></path><path d="M 64 347.5 L 789 347.5" fill="none" stroke="#C0C0C0" stroke-width="1" ></path><path d="M 64 286.5 L 789 286.5" fill="none" stroke="#C0C0C0" stroke-width="1" ></path><path d="M 64 224.5 L 789 224.5" fill="none" stroke="#C0C0C0" stroke-width="1" ></path><path d="M 64 163.5 L 789 163.5" fill="none" stroke="#C0C0C0" stroke-width="1" ></path><path d="M 64 101.5 L 789 101.5" fill="none" stroke="#C0C0C0" stroke-width="1" ></path><path d="M 64 40.5 L 789 40.5" fill="none" stroke="#C0C0C0" stroke-width="1" ></path><path d="M 64 531.5 L 789 531.5" fill="none" stroke="#C0C0C0" stroke-width="1" ></path></g><g class="highcharts-series-group" ><g class="highcharts-series" visibility="visible" transform="translate(64,40)" clip-path="url(#highcharts-10)"><path d="M -30.7 231.6 L 0 242 L 29.8 209 L 60.5 241.2 L 90.3 219.7 L 121 200.3 L 151.7 296 L 180.5 196.4 L 211.3 252.2 L 241 231.8 L 271.8 279.3 L 301.5 354.3 L 332.3 459.1 L 363 323.7 L 392.7 234.7 L 423.5 251.3 L 453.2 227.8 L 484 250.1 L 514.7 333.8 L 542.5 247.9 L 573.3 300.2 L 603 274.5 L 633.8 358 L 663.5 382.8 L 694.3 328.5 L 725 372.5 L 754.8 302.9" fill="none" stroke="#4572A7" stroke-width="2"></path></g><g class="highcharts-series" visibility="visible" transform="translate(64,40)" clip-path="url(#highcharts-10)"><path d="M -30.7 62.6 L 0 83.1 L 29.8 40.3 L 60.5 86.4 L 90.3 46.8 L 121 57.2 L 151.7 125.8 L 180.5 61.1 L 211.3 106.8 L 241 79.1 L 271.8 130.5 L 301.5 96.1 L 332.3 97.8 L 363 125.2 L 392.7 87.9 L 423.5 131.3 L 453.2 102.3 L 484 84.9 L 514.7 176.1 L 542.5 63.8 L 573.3 115.6 L 603 94.4 L 633.8 129.5 L 663.5 110.8 L 694.3 105.9 L 725 161 L 754.8 96.8" fill="none" stroke="#AA4643" stroke-width="2"></path></g></g><text x="400" y="25" style="font-family:'lucida grande', 'lucida sans unicode', verdana, arial, helvetica, sans-serif;font-size:16px;color:#3e576f;cursor:pointer;fill:#3e576f;" text-anchor="middle" class="highcharts-title" ><tspan x="400">cool graph also</tspan></text><g class="highcharts-data-labels" visibility="visible"  transform="translate(64,40)"></g><g class="highcharts-data-labels" visibility="visible"  transform="translate(64,40)"></g><g class="highcharts-legend"  transform="translate(146,556)"><rect rx="5" ry="5" fill="none" x="0.5" y="0.5" width="507" height="25" stroke-width="1" stroke="#909090" visibility="visible"></rect><text x="30" y="18" style="font-family:'lucida grande', 'lucida sans unicode', verdana, arial, helvetica, sans-serif;font-size:12px;cursor:pointer;color:#3e576f;fill:#3e576f;" text-anchor="start" ><tspan x="30">Alaska North Slope Crude Oil Production</tspan></text><path d="M -21 0 L -5 0" fill="none" stroke-width="2"  stroke="#4572A7" transform="translate(30,14)"></path><text x="288" y="18" style="font-family:'lucida grande', 'lucida sans unicode', verdana, arial, helvetica, sans-serif;font-size:12px;cursor:pointer;color:#3e576f;fill:#3e576f;" text-anchor="start" ><tspan x="288">Texas Field Production of Crude Oil</tspan></text><path d="M -21 0 L -5 0" fill="none" stroke-width="2"  stroke="#AA4643" transform="translate(288,14)"></path><path d="M 17 11 C 20.996 11 20.996 17 17 17 C 13.004 17 13.004 11 17 11 Z" fill="#4572A7"  stroke="#4572A7"></path><path d="M 275 11 C 278.996 11 278.996 17 275 17 C 271.004 17 271.004 11 275 11 Z" fill="#AA4643"  stroke="#AA4643"></path></g><g class="highcharts-axis" ><text x="0" y="0" style="font-family:'lucida grande', 'lucida sans unicode', verdana, arial, helvetica, sans-serif;font-size:11px;color:#666;line-height:14px;fill:#666;" text-anchor="middle"><tspan x="0">Invalid date</tspan></text><path d="M 0 0" fill="none" stroke="#C0D0E0" stroke-width="1"></path></g><g class="highcharts-axis" ><text x="56" y="536.1" style="font-family:'lucida grande', 'lucida sans unicode', verdana, arial, helvetica, sans-serif;font-size:11px;width:345px;color:#333333;line-height:14px;fill:#333333;" text-anchor="end" visibility="visible"><tspan x="56">20k</tspan></text><text x="56" y="474.725" style="font-family:'lucida grande', 'lucida sans unicode', verdana, arial, helvetica, sans-serif;font-size:11px;width:345px;color:#333333;line-height:14px;fill:#333333;" text-anchor="end" visibility="visible"><tspan x="56">22k</tspan></text><text x="56" y="413.35" style="font-family:'lucida grande', 'lucida sans unicode', verdana, arial, helvetica, sans-serif;font-size:11px;width:345px;color:#333333;line-height:14px;fill:#333333;" text-anchor="end" visibility="visible"><tspan x="56">24k</tspan></text><text x="56" y="351.975" style="font-family:'lucida grande', 'lucida sans unicode', verdana, arial, helvetica, sans-serif;font-size:11px;width:345px;color:#333333;line-height:14px;fill:#333333;" text-anchor="end" visibility="visible"><tspan x="56">26k</tspan></text><text x="56" y="290.6" style="font-family:'lucida grande', 'lucida sans unicode', verdana, arial, helvetica, sans-serif;font-size:11px;width:345px;color:#333333;line-height:14px;fill:#333333;" text-anchor="end" visibility="visible"><tspan x="56">28k</tspan></text><text x="56" y="229.225" style="font-family:'lucida grande', 'lucida sans unicode', verdana, arial, helvetica, sans-serif;font-size:11px;width:345px;color:#333333;line-height:14px;fill:#333333;" text-anchor="end" visibility="visible"><tspan x="56">30k</tspan></text><text x="56" y="167.85" style="font-family:'lucida grande', 'lucida sans unicode', verdana, arial, helvetica, sans-serif;font-size:11px;width:345px;color:#333333;line-height:14px;fill:#333333;" text-anchor="end" visibility="visible"><tspan x="56">32k</tspan></text><text x="56" y="106.475" style="font-family:'lucida grande', 'lucida sans unicode', verdana, arial, helvetica, sans-serif;font-size:11px;width:345px;color:#333333;line-height:14px;fill:#333333;" text-anchor="end" visibility="visible"><tspan x="56">34k</tspan></text><text x="56" y="45.1" style="font-family:'lucida grande', 'lucida sans unicode', verdana, arial, helvetica, sans-serif;font-size:11px;width:345px;color:#333333;line-height:14px;fill:#333333;" text-anchor="end" visibility="visible"><tspan x="56">36k</tspan></text></g><text x="26" y="285.5" style="font-family:'lucida grande', 'lucida sans unicode', verdana, arial, helvetica, sans-serif;font-size:12px;color:#333333;font-weight:bold;fill:#333333;"  transform="rotate(270 26 285)" text-anchor="middle" visibility="visible"><tspan x="26">Thousand Barrels</tspan></text><path d="M 64 531.5 L 789 531.5" fill="none" stroke="#C0D0E0" stroke-width="1"  visibility="visible"></path><g  style="padding:0;white-space:nowrap;" visibility="hidden"><rect rx="5" ry="5" fill="none" x="0" y="0" width="0" height="0" stroke-width="5" fill-opacity="0.85" anchorX="0" anchorY="0"  stroke="rgb(0, 0, 0)" stroke-opacity="0.05" transform="translate(1,1)"></rect><rect rx="5" ry="5" fill="none" x="0" y="0" width="0" height="0" stroke-width="3" fill-opacity="0.85" anchorX="0" anchorY="0"  stroke="rgb(0, 0, 0)" stroke-opacity="0.1" transform="translate(1,1)"></rect><rect rx="5" ry="5" fill="none" x="0" y="0" width="0" height="0" stroke-width="1" fill-opacity="0.85" anchorX="0" anchorY="0"  stroke="rgb(0, 0, 0)" stroke-opacity="0.15000000000000002" transform="translate(1,1)"></rect><rect rx="5" ry="5" fill="rgb(255,255,255)" x="0" y="0" width="0" height="0" stroke-width="2" fill-opacity="0.85" anchorX="0" anchorY="0"></rect><text x="0" y="13" style="font-family:'lucida grande', 'lucida sans unicode', verdana, arial, helvetica, sans-serif;font-size:12px;color:#333333;fill:#333333;" ></text></g><text x="789" y="592" style="font-family:'lucida grande', 'lucida sans unicode', verdana, arial, helvetica, sans-serif;font-size:10px;cursor:pointer;color:#909090;fill:#909090;" text-anchor="end" ></text><g class="highcharts-tracker" ><g  transform="translate(64,40)" clip-path="url(#highcharts-10)"><path d="M -40.7 231.6 L -30.7 231.6 L 0 242 L 29.8 209 L 60.5 241.2 L 90.3 219.7 L 121 200.3 L 151.7 296 L 180.5 196.4 L 211.3 252.2 L 241 231.8 L 271.8 279.3 L 301.5 354.3 L 332.3 459.1 L 363 323.7 L 392.7 234.7 L 423.5 251.3 L 453.2 227.8 L 484 250.1 L 514.7 333.8 L 542.5 247.9 L 573.3 300.2 L 603 274.5 L 633.8 358 L 663.5 382.8 L 694.3 328.5 L 725 372.5 L 754.8 302.9 L 764.8 302.9" fill="none"  stroke-opacity="0.000001" stroke="rgb(192,192,192)" stroke-linejoin="bevel" stroke-width="22" visibility="visible" style=""></path></g><g  transform="translate(64,40)" clip-path="url(#highcharts-10)"><path d="M -40.7 62.6 L -30.7 62.6 L 0 83.1 L 29.8 40.3 L 60.5 86.4 L 90.3 46.8 L 121 57.2 L 151.7 125.8 L 180.5 61.1 L 211.3 106.8 L 241 79.1 L 271.8 130.5 L 301.5 96.1 L 332.3 97.8 L 363 125.2 L 392.7 87.9 L 423.5 131.3 L 453.2 102.3 L 484 84.9 L 514.7 176.1 L 542.5 63.8 L 573.3 115.6 L 603 94.4 L 633.8 129.5 L 663.5 110.8 L 694.3 105.9 L 725 161 L 754.8 96.8 L 764.8 96.8" fill="none"  stroke-opacity="0.000001" stroke="rgb(192,192,192)" stroke-linejoin="bevel" stroke-width="22" visibility="visible" style=""></path></g></g></svg>